<svg data-v-0dd9719b="" version="1.0" xmlns="http://www.w3.org/2000/svg" xmlns:xlink="http://www.w3.org/1999/xlink" width="100%" height="100%" viewBox="0 0 340.000000 250.000000" preserveAspectRatio="xMidYMid meet" color-interpolation-filters="sRGB" style="margin: auto;">   <g data-v-0dd9719b="" fill="#eeeeee" class="icon-text-wrapper icon-svg-group iconsvg" transform="translate(81.7199935913086,72.6233139038086)"><g class="iconsvg-imagesvg" transform="matrix(1,0,0,1,58.280006408691406,0)" mask="url(#6d4b57b7-f406-4b85-a09b-72d3bda93897)" opacity="1"><g><rect fill="#eeeeee" fill-opacity="0" stroke-width="2" x="0" y="0" width="60" height="53.877375094285405" class="image-rect"></rect> <svg filter="url(#colors6415670893)" x="0" y="0" width="60" height="53.877375094285405" filtersec="colorsf2165270902" class="image-svg-svg primary" style="overflow: visible;"><svg xmlns="http://www.w3.org/2000/svg" viewBox="-0.02977297641336918 0.0018004345474764705 111.4000015258789 100.0324935913086"><title>资源 369</title><path d="M44.28 6.58a13.19 13.19 0 1 1 22.83 13.23l-24.21 42a13.2 13.2 0 0 1-22.84-13.25l24.22-42zm65.33 86.84a13.2 13.2 0 1 1-4.81-18 13.2 13.2 0 0 1 4.81 18zm-85 0a13.2 13.2 0 1 1-4.81-18 13.21 13.21 0 0 1 4.81 18zm40.9-50L44.28 80.19a13.19 13.19 0 1 0 22.83 13.23l21.25-36.81a13.2 13.2 0 1 0-22.84-13.22z" fill="#eee" fill-rule="evenodd"></path></svg></svg> <defs><filter id="colors6415670893"><feColorMatrix type="matrix" values="0 0 0 0 0.98046875  0 0 0 0 0.73046875  0 0 0 0 0.06640625  0 0 0 1 0" class="icon-fecolormatrix"></feColorMatrix></filter> <filter id="colorsf2165270902"><feColorMatrix type="matrix" values="0 0 0 0 0.99609375  0 0 0 0 0.99609375  0 0 0 0 0.99609375  0 0 0 1 0" class="icon-fecolormatrix"></feColorMatrix></filter> <filter id="colorsb8485037434"><feColorMatrix type="matrix" values="0 0 0 0 0  0 0 0 0 0  0 0 0 0 0  0 0 0 1 0" class="icon-fecolormatrix"></feColorMatrix></filter></defs></g><rect v-gra="id" width="72" height="65.87737655639648" transform="translate(-6, -6)" style="pointer-events:none;" fill="url(#FCZu4Nj-k96js516-NLEe)"></rect></g> <g transform="translate(0,60.877376556396484)"><g data-gra="path-name" fill-rule="" class="tp-name iconsvg-namesvg" transform="matrix(1,0,0,1,0,0)" opacity="1"><g transform="scale(1)"><g><path d="M24.4-28.4Q25.52-28.4 26.18-27.7 26.84-27 26.84-25.84L26.84-25.84 26.84-2.36Q26.84-1.2 26.16-0.48 25.48 0.24 24.4 0.24L24.4 0.24Q23.12 0.24 22.44-0.68L22.44-0.68 7.84-19.68 7.84-2.36Q7.84-1.2 7.2-0.48 6.56 0.24 5.44 0.24L5.44 0.24Q4.32 0.24 3.68-0.48 3.04-1.2 3.04-2.36L3.04-2.36 3.04-25.84Q3.04-27 3.72-27.7 4.4-28.4 5.52-28.4L5.52-28.4Q6.76-28.4 7.44-27.48L7.44-27.48 22-8.56 22-25.84Q22-27 22.66-27.7 23.32-28.4 24.4-28.4L24.4-28.4ZM41.4 0.32Q38.4 0.32 36.14-0.92 33.88-2.16 32.64-4.48 31.4-6.8 31.4-9.88L31.4-9.88Q31.4-12.96 32.64-15.26 33.88-17.56 36.14-18.8 38.4-20.04 41.4-20.04L41.4-20.04Q44.4-20.04 46.66-18.8 48.92-17.56 50.14-15.26 51.36-12.96 51.36-9.88L51.36-9.88Q51.36-6.8 50.14-4.48 48.92-2.16 46.66-0.92 44.4 0.32 41.4 0.32L41.4 0.32ZM41.36-3.56Q43.8-3.56 45.08-5.16 46.36-6.76 46.36-9.88L46.36-9.88Q46.36-12.96 45.08-14.58 43.8-16.2 41.4-16.2L41.4-16.2Q39-16.2 37.7-14.58 36.4-12.96 36.4-9.88L36.4-9.88Q36.4-6.76 37.68-5.16 38.96-3.56 41.36-3.56L41.36-3.56ZM65.52-3.48Q67.52-3.36 67.52-1.68L67.52-1.68Q67.52-0.72 66.74-0.22 65.96 0.28 64.52 0.2L64.52 0.2 63.44 0.12Q56.72-0.36 56.72-7.08L56.72-7.08 56.72-15.8 54.72-15.8Q53.64-15.8 53.06-16.28 52.48-16.76 52.48-17.68L52.48-17.68Q52.48-18.6 53.06-19.08 53.64-19.56 54.72-19.56L54.72-19.56 56.72-19.56 56.72-23.24Q56.72-24.32 57.4-24.96 58.08-25.6 59.24-25.6L59.24-25.6Q60.36-25.6 61.04-24.96 61.72-24.32 61.72-23.24L61.72-23.24 61.72-19.56 65.12-19.56Q66.2-19.56 66.78-19.08 67.36-18.6 67.36-17.68L67.36-17.68Q67.36-16.76 66.78-16.28 66.2-15.8 65.12-15.8L65.12-15.8 61.72-15.8 61.72-6.72Q61.72-3.76 64.44-3.56L64.44-3.56 65.52-3.48ZM85.6-5.36Q86.28-5.36 86.7-4.84 87.12-4.32 87.12-3.44L87.12-3.44Q87.12-2.2 85.64-1.36L85.64-1.36Q84.28-0.6 82.56-0.14 80.84 0.32 79.28 0.32L79.28 0.32Q74.56 0.32 71.8-2.4 69.04-5.12 69.04-9.84L69.04-9.84Q69.04-12.84 70.24-15.16 71.44-17.48 73.62-18.76 75.8-20.04 78.56-20.04L78.56-20.04Q81.2-20.04 83.16-18.88 85.12-17.72 86.2-15.6 87.28-13.48 87.28-10.6L87.28-10.6Q87.28-8.88 85.76-8.88L85.76-8.88 73.96-8.88Q74.2-6.12 75.52-4.82 76.84-3.52 79.36-3.52L79.36-3.52Q80.64-3.52 81.62-3.84 82.6-4.16 83.84-4.72L83.84-4.72Q85.04-5.36 85.6-5.36L85.6-5.36ZM78.68-16.52Q76.64-16.52 75.42-15.24 74.2-13.96 73.96-11.56L73.96-11.56 83-11.56Q82.92-14 81.8-15.26 80.68-16.52 78.68-16.52L78.68-16.52ZM102.6-20.04Q105.16-20.04 107.12-18.8 109.08-17.56 110.18-15.28 111.28-13 111.28-9.96L111.28-9.96Q111.28-6.92 110.18-4.58 109.08-2.24 107.1-0.96 105.12 0.32 102.6 0.32L102.6 0.32Q100.48 0.32 98.82-0.6 97.16-1.52 96.28-3.16L96.28-3.16 96.28-2.16Q96.28-1.08 95.6-0.44 94.92 0.2 93.8 0.2L93.8 0.2Q92.68 0.2 92.02-0.44 91.36-1.08 91.36-2.16L91.36-2.16 91.36-26.08Q91.36-27.12 92.06-27.76 92.76-28.4 93.88-28.4L93.88-28.4Q95-28.4 95.68-27.8 96.36-27.2 96.36-26.16L96.36-26.16 96.36-16.72Q97.24-18.32 98.88-19.18 100.52-20.04 102.6-20.04L102.6-20.04ZM101.28-3.56Q103.64-3.56 104.96-5.24 106.28-6.92 106.28-9.96L106.28-9.96Q106.28-12.96 104.98-14.56 103.68-16.16 101.28-16.16L101.28-16.16Q98.88-16.16 97.58-14.54 96.28-12.92 96.28-9.88L96.28-9.88Q96.28-6.84 97.58-5.2 98.88-3.56 101.28-3.56L101.28-3.56ZM124.32 0.32Q121.32 0.32 119.06-0.92 116.8-2.16 115.56-4.48 114.32-6.8 114.32-9.88L114.32-9.88Q114.32-12.96 115.56-15.26 116.8-17.56 119.06-18.8 121.32-20.04 124.32-20.04L124.32-20.04Q127.32-20.04 129.58-18.8 131.84-17.56 133.06-15.26 134.28-12.96 134.28-9.88L134.28-9.88Q134.28-6.8 133.06-4.48 131.84-2.16 129.58-0.92 127.32 0.32 124.32 0.32L124.32 0.32ZM124.28-3.56Q126.72-3.56 128-5.16 129.28-6.76 129.28-9.88L129.28-9.88Q129.28-12.96 128-14.58 126.72-16.2 124.32-16.2L124.32-16.2Q121.92-16.2 120.62-14.58 119.32-12.96 119.32-9.88L119.32-9.88Q119.32-6.76 120.6-5.16 121.88-3.56 124.28-3.56L124.28-3.56ZM147.32 0.32Q144.32 0.32 142.06-0.92 139.8-2.16 138.56-4.48 137.32-6.8 137.32-9.88L137.32-9.88Q137.32-12.96 138.56-15.26 139.8-17.56 142.06-18.8 144.32-20.04 147.32-20.04L147.32-20.04Q150.32-20.04 152.58-18.8 154.84-17.56 156.06-15.26 157.28-12.96 157.28-9.88L157.28-9.88Q157.28-6.8 156.06-4.48 154.84-2.16 152.58-0.92 150.32 0.32 147.32 0.32L147.32 0.32ZM147.28-3.56Q149.72-3.56 151-5.16 152.28-6.76 152.28-9.88L152.28-9.88Q152.28-12.96 151-14.58 149.72-16.2 147.32-16.2L147.32-16.2Q144.92-16.2 143.62-14.58 142.32-12.96 142.32-9.88L142.32-9.88Q142.32-6.76 143.6-5.16 144.88-3.56 147.28-3.56L147.28-3.56ZM178.8-3.88Q179.6-3.12 179.6-2.16L179.6-2.16Q179.6-1.24 178.94-0.52 178.28 0.2 177.4 0.2L177.4 0.2Q176.52 0.2 175.76-0.52L175.76-0.52 166.4-9 166.4-2.16Q166.4-1 165.68-0.4 164.96 0.2 163.88 0.2L163.88 0.2Q162.8 0.2 162.1-0.4 161.4-1 161.4-2.16L161.4-2.16 161.4-26.04Q161.4-27.2 162.1-27.8 162.8-28.4 163.88-28.4L163.88-28.4Q164.96-28.4 165.68-27.8 166.4-27.2 166.4-26.04L166.4-26.04 166.4-11 174.96-19.2Q175.68-19.92 176.6-19.92L176.6-19.92Q177.52-19.92 178.2-19.24 178.88-18.56 178.88-17.64L178.88-17.64Q178.88-16.72 178.12-15.96L178.12-15.96 171.84-10.12 178.8-3.88Z" transform="translate(-3.0399999618530273, 28.399999618530273)"></path></g> <!----> <!----> <!----> <!----> <!----> <!----> <!----></g></g> <g data-gra="path-slogan" fill-rule="" class="tp-slogan iconsvg-slogansvg" fill="#eeeeee" transform="matrix(1,0,0,1,22.56000518798828,35.71999931335449)" opacity="1"><!----> <!----> <g transform="scale(1, 1)"><g transform="scale(1)"><path d="M2.71 0L2.71-7.03L0.34-7.03L0.34-7.87L6.10-7.87L6.10-7.03L3.72-7.03L3.72 0L2.71 0ZM8.51-7.07L8.51-4.14L9.83-4.14Q10.75-4.14 11.24-4.52Q11.74-4.90 11.74-5.66L11.74-5.66Q11.74-6.44 11.24-6.76Q10.75-7.07 9.83-7.07L9.83-7.07L8.51-7.07ZM12.96 0L11.83 0L9.94-3.32L8.51-3.32L8.51 0L7.51 0L7.51-7.87L9.97-7.87Q10.57-7.87 11.08-7.76Q11.59-7.64 11.96-7.38Q12.32-7.12 12.53-6.70Q12.73-6.28 12.73-5.66L12.73-5.66Q12.73-4.74 12.25-4.19Q11.77-3.64 10.97-3.43L10.97-3.43L12.96 0ZM15.35-3.20L17.71-3.20L17.34-4.40Q17.12-5.06 16.93-5.72Q16.74-6.37 16.55-7.06L16.55-7.06L16.50-7.06Q16.32-6.37 16.13-5.72Q15.94-5.06 15.72-4.40L15.72-4.40L15.35-3.20ZM18.71 0L17.96-2.40L15.10-2.40L14.34 0L13.32 0L15.98-7.87L17.11-7.87L19.78 0L18.71 0ZM20.89 0L20.89-7.87L21.92-7.87L24.77-2.93L25.62-1.30L25.67-1.30Q25.63-1.90 25.59-2.54Q25.55-3.18 25.55-3.80L25.55-3.80L25.55-7.87L26.50-7.87L26.50 0L25.46 0L22.61-4.96L21.76-6.58L21.71-6.58Q21.76-5.98 21.80-5.36Q21.84-4.74 21.84-4.12L21.84-4.12L21.84 0L20.89 0ZM28.08-1.02L28.68-1.72Q29.10-1.27 29.67-1.00Q30.24-0.73 30.85-0.73L30.85-0.73Q31.63-0.73 32.06-1.09Q32.50-1.44 32.50-2.02L32.50-2.02Q32.50-2.32 32.39-2.53Q32.29-2.74 32.12-2.89Q31.94-3.04 31.70-3.16Q31.46-3.28 31.19-3.41L31.19-3.41L30.06-3.90Q29.78-4.02 29.50-4.19Q29.21-4.36 28.98-4.60Q28.75-4.84 28.61-5.17Q28.46-5.50 28.46-5.93L28.46-5.93Q28.46-6.37 28.65-6.76Q28.84-7.14 29.17-7.42Q29.50-7.70 29.95-7.86Q30.40-8.02 30.94-8.02L30.94-8.02Q31.64-8.02 32.24-7.75Q32.84-7.48 33.26-7.04L33.26-7.04L32.72-6.40Q32.36-6.74 31.93-6.94Q31.49-7.14 30.94-7.14L30.94-7.14Q30.28-7.14 29.87-6.83Q29.47-6.53 29.47-5.99L29.47-5.99Q29.47-5.70 29.59-5.50Q29.70-5.30 29.89-5.15Q30.08-5.00 30.31-4.89Q30.54-4.78 30.78-4.68L30.78-4.68L31.90-4.20Q32.23-4.06 32.53-3.87Q32.83-3.68 33.05-3.44Q33.26-3.19 33.39-2.86Q33.52-2.53 33.52-2.10L33.52-2.10Q33.52-1.63 33.33-1.22Q33.14-0.82 32.80-0.51Q32.45-0.20 31.96-0.03Q31.46 0.14 30.84 0.14L30.84 0.14Q30.01 0.14 29.30-0.17Q28.60-0.48 28.08-1.02L28.08-1.02ZM35.06 0L35.06-7.87L36.06-7.87L36.06-0.85L39.50-0.85L39.50 0L35.06 0ZM41.92-3.20L44.28-3.20L43.91-4.40Q43.69-5.06 43.50-5.72Q43.31-6.37 43.12-7.06L43.12-7.06L43.07-7.06Q42.89-6.37 42.70-5.72Q42.50-5.06 42.29-4.40L42.29-4.40L41.92-3.20ZM45.28 0L44.53-2.40L41.66-2.40L40.91 0L39.89 0L42.55-7.87L43.68-7.87L46.34 0L45.28 0ZM48.61 0L48.61-7.03L46.24-7.03L46.24-7.87L52.00-7.87L52.00-7.03L49.62-7.03L49.62 0L48.61 0ZM53.41 0L53.41-7.87L54.41-7.87L54.41 0L53.41 0ZM59.47 0.14L59.47 0.14Q58.73 0.14 58.11-0.14Q57.49-0.43 57.05-0.97Q56.60-1.50 56.36-2.26Q56.11-3.02 56.11-3.97L56.11-3.97Q56.11-4.92 56.36-5.67Q56.60-6.42 57.05-6.94Q57.49-7.46 58.11-7.74Q58.73-8.02 59.47-8.02L59.47-8.02Q60.22-8.02 60.83-7.73Q61.45-7.45 61.90-6.93Q62.35-6.41 62.60-5.66Q62.84-4.91 62.84-3.97L62.84-3.97Q62.84-3.02 62.60-2.26Q62.35-1.50 61.90-0.97Q61.45-0.43 60.83-0.14Q60.22 0.14 59.47 0.14ZM59.47-0.73L59.47-0.73Q60.00-0.73 60.43-0.96Q60.85-1.19 61.16-1.61Q61.46-2.04 61.63-2.63Q61.80-3.23 61.80-3.97L61.80-3.97Q61.80-4.70 61.63-5.29Q61.46-5.88 61.16-6.29Q60.85-6.70 60.43-6.92Q60.00-7.14 59.47-7.14L59.47-7.14Q58.94-7.14 58.52-6.92Q58.09-6.70 57.79-6.29Q57.48-5.88 57.31-5.29Q57.14-4.70 57.14-3.97L57.14-3.97Q57.14-3.23 57.31-2.63Q57.48-2.04 57.79-1.61Q58.09-1.19 58.52-0.96Q58.94-0.73 59.47-0.73ZM64.54 0L64.54-7.87L65.57-7.87L68.41-2.93L69.26-1.30L69.31-1.30Q69.28-1.90 69.23-2.54Q69.19-3.18 69.19-3.80L69.19-3.80L69.19-7.87L70.14-7.87L70.14 0L69.11 0L66.25-4.96L65.40-6.58L65.35-6.58Q65.40-5.98 65.44-5.36Q65.48-4.74 65.48-4.12L65.48-4.12L65.48 0L64.54 0ZM74.72 0L74.72-7.87L75.76-7.87L78.60-2.93L79.45-1.30L79.50-1.30Q79.46-1.90 79.42-2.54Q79.38-3.18 79.38-3.80L79.38-3.80L79.38-7.87L80.33-7.87L80.33 0L79.30 0L76.44-4.96L75.59-6.58L75.54-6.58Q75.59-5.98 75.63-5.36Q75.67-4.74 75.67-4.12L75.67-4.12L75.67 0L74.72 0ZM85.39 0.14L85.39 0.14Q84.65 0.14 84.03-0.14Q83.41-0.43 82.97-0.97Q82.52-1.50 82.28-2.26Q82.03-3.02 82.03-3.97L82.03-3.97Q82.03-4.92 82.28-5.67Q82.52-6.42 82.97-6.94Q83.41-7.46 84.03-7.74Q84.65-8.02 85.39-8.02L85.39-8.02Q86.14-8.02 86.75-7.73Q87.37-7.45 87.82-6.93Q88.27-6.41 88.52-5.66Q88.76-4.91 88.76-3.97L88.76-3.97Q88.76-3.02 88.52-2.26Q88.27-1.50 87.82-0.97Q87.37-0.43 86.75-0.14Q86.14 0.14 85.39 0.14ZM85.39-0.73L85.39-0.73Q85.92-0.73 86.35-0.96Q86.77-1.19 87.08-1.61Q87.38-2.04 87.55-2.63Q87.72-3.23 87.72-3.97L87.72-3.97Q87.72-4.70 87.55-5.29Q87.38-5.88 87.08-6.29Q86.77-6.70 86.35-6.92Q85.92-7.14 85.39-7.14L85.39-7.14Q84.86-7.14 84.44-6.92Q84.01-6.70 83.71-6.29Q83.40-5.88 83.23-5.29Q83.06-4.70 83.06-3.97L83.06-3.97Q83.06-3.23 83.23-2.63Q83.40-2.04 83.71-1.61Q84.01-1.19 84.44-0.96Q84.86-0.73 85.39-0.73ZM91.85 0L91.85-7.03L89.47-7.03L89.47-7.87L95.23-7.87L95.23-7.03L92.86-7.03L92.86 0L91.85 0ZM96.65 0L96.65-7.87L101.18-7.87L101.18-7.03L97.64-7.03L97.64-4.56L100.63-4.56L100.63-3.71L97.64-3.71L97.64-0.85L101.30-0.85L101.30 0L96.65 0ZM102.97 0L102.97-7.87L105.31-7.87Q105.91-7.87 106.41-7.76Q106.91-7.66 107.26-7.43Q107.62-7.20 107.81-6.83Q108.01-6.47 108.01-5.95L108.01-5.95Q108.01-5.36 107.68-4.89Q107.34-4.42 106.64-4.24L106.64-4.24L106.64-4.19Q107.51-4.06 107.99-3.59Q108.47-3.12 108.47-2.30L108.47-2.30Q108.47-1.73 108.25-1.30Q108.04-0.86 107.64-0.58Q107.24-0.29 106.69-0.14Q106.14 0 105.48 0L105.48 0L102.97 0ZM103.97-4.51L105.13-4.51Q106.15-4.51 106.59-4.86Q107.03-5.21 107.03-5.87L107.03-5.87Q107.03-6.52 106.57-6.80Q106.10-7.08 105.18-7.08L105.18-7.08L103.97-7.08L103.97-4.51ZM103.97-0.79L105.34-0.79Q106.36-0.79 106.92-1.17Q107.48-1.55 107.48-2.35L107.48-2.35Q107.48-3.08 106.93-3.43Q106.38-3.77 105.34-3.77L105.34-3.77L103.97-3.77L103.97-0.79ZM112.93 0.14L112.93 0.14Q112.19 0.14 111.57-0.14Q110.95-0.43 110.51-0.97Q110.06-1.50 109.82-2.26Q109.57-3.02 109.57-3.97L109.57-3.97Q109.57-4.92 109.82-5.67Q110.06-6.42 110.51-6.94Q110.95-7.46 111.57-7.74Q112.19-8.02 112.93-8.02L112.93-8.02Q113.68-8.02 114.29-7.73Q114.91-7.45 115.36-6.93Q115.81-6.41 116.06-5.66Q116.30-4.91 116.30-3.97L116.30-3.97Q116.30-3.02 116.06-2.26Q115.81-1.50 115.36-0.97Q114.91-0.43 114.29-0.14Q113.68 0.14 112.93 0.14ZM112.93-0.73L112.93-0.73Q113.46-0.73 113.89-0.96Q114.31-1.19 114.62-1.61Q114.92-2.04 115.09-2.63Q115.26-3.23 115.26-3.97L115.26-3.97Q115.26-4.70 115.09-5.29Q114.92-5.88 114.62-6.29Q114.31-6.70 113.89-6.92Q113.46-7.14 112.93-7.14L112.93-7.14Q112.40-7.14 111.98-6.92Q111.55-6.70 111.25-6.29Q110.94-5.88 110.77-5.29Q110.60-4.70 110.60-3.97L110.60-3.97Q110.60-3.23 110.77-2.63Q110.94-2.04 111.25-1.61Q111.55-1.19 111.98-0.96Q112.40-0.73 112.93-0.73ZM120.90 0.14L120.90 0.14Q120.16 0.14 119.54-0.14Q118.92-0.43 118.48-0.97Q118.03-1.50 117.79-2.26Q117.54-3.02 117.54-3.97L117.54-3.97Q117.54-4.92 117.79-5.67Q118.03-6.42 118.48-6.94Q118.92-7.46 119.54-7.74Q120.16-8.02 120.90-8.02L120.90-8.02Q121.64-8.02 122.26-7.73Q122.88-7.45 123.33-6.93Q123.78-6.41 124.03-5.66Q124.27-4.91 124.27-3.97L124.27-3.97Q124.27-3.02 124.03-2.26Q123.78-1.50 123.33-0.97Q122.88-0.43 122.26-0.14Q121.64 0.14 120.90 0.14ZM120.90-0.73L120.90-0.73Q121.43-0.73 121.85-0.96Q122.28-1.19 122.59-1.61Q122.89-2.04 123.06-2.63Q123.23-3.23 123.23-3.97L123.23-3.97Q123.23-4.70 123.06-5.29Q122.89-5.88 122.59-6.29Q122.28-6.70 121.85-6.92Q121.43-7.14 120.90-7.14L120.90-7.14Q120.37-7.14 119.95-6.92Q119.52-6.70 119.21-6.29Q118.91-5.88 118.74-5.29Q118.57-4.70 118.57-3.97L118.57-3.97Q118.57-3.23 118.74-2.63Q118.91-2.04 119.21-1.61Q119.52-1.19 119.95-0.96Q120.37-0.73 120.90-0.73ZM125.96 0L125.96-7.87L126.96-7.87L126.96-3.92L127.00-3.92L130.27-7.87L131.40-7.87L128.94-4.87L131.78 0L130.67 0L128.32-4.09L126.96-2.50L126.96 0L125.96 0Z" transform="translate(-0.336, 8.016)"></path></g></g></g></g></g><defs v-gra="od"></defs><defs v-gra="id"><filter id="e0723434-8173-45b9-85e9-e692916a48b0" filterUnits="userSpaceOnUse"><feColorMatrix type="matrix" values="0 0 0 0 0.99609375  0 0 0 0 0.99609375  0 0 0 0 0.99609375  0 0 0 1 0"></feColorMatrix></filter><linearGradient x1="0" y1="1" x2="0" y2="0" id="FCZu4Nj-k96js516-NLEe"><stop offset="0%" stop-color="#ff0844"></stop><stop offset="100%" stop-color="#ffb199"></stop></linearGradient><filter id="42443b3f1de60f6b6fd3b6a9844b4764" filterUnits="objectBoundingBox"><feColorMatrix type="matrix" values="0 0 0 0 0.99609375  0 0 0 0 0.99609375  0 0 0 0 0.99609375  0 0 0 1 0"></feColorMatrix></filter></defs><mask v-gra="im" id="6d4b57b7-f406-4b85-a09b-72d3bda93897"><g class="iconsvg-imagesvg" filter="url(#e0723434-8173-45b9-85e9-e692916a48b0)"><g><rect fill="#eeeeee" fill-opacity="0" stroke-width="2" x="0" y="0" width="60" height="53.877375094285405" class="image-rect"></rect> <svg x="0" y="0" width="60" height="53.877375094285405" filtersec="colorsf2165270902" class="image-svg-svg primary" style="overflow: visible;"><svg xmlns="http://www.w3.org/2000/svg" viewBox="-0.02977297641336918 0.0018004345474764705 111.4000015258789 100.0324935913086"><title>资源 369</title><path d="M44.28 6.58a13.19 13.19 0 1 1 22.83 13.23l-24.21 42a13.2 13.2 0 0 1-22.84-13.25l24.22-42zm65.33 86.84a13.2 13.2 0 1 1-4.81-18 13.2 13.2 0 0 1 4.81 18zm-85 0a13.2 13.2 0 1 1-4.81-18 13.21 13.21 0 0 1 4.81 18zm40.9-50L44.28 80.19a13.19 13.19 0 1 0 22.83 13.23l21.25-36.81a13.2 13.2 0 1 0-22.84-13.22z" fill="#eee" fill-rule="evenodd"></path></svg></svg> <defs><filter id="colors6415670893"><feColorMatrix type="matrix" values="0 0 0 0 0.98046875  0 0 0 0 0.73046875  0 0 0 0 0.06640625  0 0 0 1 0" class="icon-fecolormatrix"></feColorMatrix></filter> <filter id="colorsf2165270902"><feColorMatrix type="matrix" values="0 0 0 0 0.99609375  0 0 0 0 0.99609375  0 0 0 0 0.99609375  0 0 0 1 0" class="icon-fecolormatrix"></feColorMatrix></filter> <filter id="colorsb8485037434"><feColorMatrix type="matrix" values="0 0 0 0 0  0 0 0 0 0  0 0 0 0 0  0 0 0 1 0" class="icon-fecolormatrix"></feColorMatrix></filter></defs></g></g></mask></svg>
